<svg width="24" height="24" viewBox="0 0 24 24" fill="none" xmlns="http://www.w3.org/2000/svg">
<path d="M13 21.57C11.3192 21.7781 9.61524 21.4562 8.12615 20.6492C6.63706 19.8422 5.4371 18.5904 4.69378 17.0685C3.95046 15.5467 3.70087 13.8307 3.97987 12.1601C4.25886 10.4895 5.05251 8.94776 6.25002 7.75001L11.576 2.42401C11.6885 2.31165 11.841 2.24854 12 2.24854C12.159 2.24854 12.3115 2.31165 12.424 2.42401L17.75 7.75001C18.8094 8.80848 19.5558 10.139 19.9069 11.5947C20.2581 13.0505 20.2003 14.575 19.74 16M16 20L18 22L22 18" stroke="#F2DCDF" stroke-width="2" stroke-linecap="round" stroke-linejoin="round"/>
</svg>
