<svg width="20" height="20" viewBox="0 0 20 20" fill="none" xmlns="http://www.w3.org/2000/svg">
<g clip-path="url(#clip0_37_99)">
<path d="M0.41981 9.87263C0.417819 11.499 0.853251 13.0971 1.68221 14.5059L0.340576 19.3082L5.35381 18.0196C6.74046 18.7594 8.29394 19.1471 9.87262 19.1474H9.87679C15.0884 19.1474 19.3309 14.99 19.3331 9.87998C19.3341 7.40373 18.3513 5.07546 16.5658 3.32362C14.7806 1.57194 12.4063 0.606816 9.87646 0.605835C4.66406 0.605835 0.421978 4.7628 0.41981 9.87263Z" fill="url(#paint0_linear_37_99)"/>
<path d="M0.0822361 9.86966C0.080196 11.5543 0.531219 13.2097 1.38984 14.669L0 19.6434L5.19288 18.3085C6.62921 19.0752 8.23855 19.477 9.874 19.4772H9.87817C15.2767 19.4772 19.6714 15.1702 19.6739 9.87735C19.6748 7.31214 18.6566 4.90014 16.8074 3.08551C14.9578 1.2712 12.4985 0.271245 9.87817 0.270264C4.47861 0.270264 0.0844046 4.57653 0.0822361 9.86966ZM3.17485 14.4183L2.98085 14.1166C2.16544 12.8446 1.73391 11.3724 1.73613 9.87016C1.7378 5.47085 5.39022 1.89178 9.88134 1.89178C12.056 1.89259 14.0999 2.72363 15.6374 4.23165C17.1747 5.73984 18.0205 7.7445 18.0199 9.8767C18.0179 14.2762 14.3656 17.8559 9.878 17.8559H9.875C8.41688 17.856 6.98555 17.4718 5.73084 16.7436L5.43342 16.5706L2.35199 17.3627L3.17485 14.4183Z" fill="url(#paint1_linear_37_99)"/>
<path d="M7.42977 5.85638C7.24628 5.45689 7.05345 5.44888 6.87914 5.44185C6.73635 5.4358 6.57305 5.43629 6.41008 5.43629C6.2466 5.43629 5.98155 5.49647 5.75736 5.73652C5.533 5.97658 4.90063 6.55693 4.90063 7.73757C4.90063 8.91822 5.77771 10.0588 5.89998 10.2191C6.02241 10.379 7.59324 12.8791 10.081 13.8408C12.1488 14.6401 12.5694 14.4812 13.0182 14.4411C13.4669 14.4012 14.4664 13.8609 14.6702 13.3005C14.8742 12.7403 14.8742 12.26 14.813 12.1598C14.7519 12.0599 14.5886 11.9997 14.3439 11.8798C14.0991 11.7598 12.8957 11.1793 12.6715 11.0992C12.447 11.0192 12.2839 10.9793 12.1206 11.2195C11.9574 11.4594 11.4887 11.9997 11.3459 12.1598C11.2031 12.3199 11.0602 12.3401 10.8155 12.2203C10.5706 12.0998 9.78225 11.8466 8.84713 11.0293C8.11952 10.3932 7.62827 9.60797 7.48548 9.36775C7.3427 9.12754 7.4703 8.99786 7.59291 8.87816C7.703 8.77072 7.83778 8.59804 7.96022 8.4579C8.08232 8.31776 8.12319 8.21785 8.20476 8.05776C8.28649 7.8975 8.24546 7.75752 8.18441 7.6375C8.12319 7.51747 7.64745 6.33093 7.42977 5.85638Z" fill="white"/>
</g>
<defs>
<linearGradient id="paint0_linear_37_99" x1="9.83684" y1="19.3082" x2="9.83684" y2="0.605835" gradientUnits="userSpaceOnUse">
<stop stop-color="#1FAF38"/>
<stop offset="1" stop-color="#60D669"/>
</linearGradient>
<linearGradient id="paint1_linear_37_99" x1="9.83697" y1="19.6434" x2="9.83697" y2="0.270264" gradientUnits="userSpaceOnUse">
<stop stop-color="#F9F9F9"/>
<stop offset="1" stop-color="white"/>
</linearGradient>
<clipPath id="clip0_37_99">
<rect width="20" height="20" fill="white"/>
</clipPath>
</defs>
</svg>
