<svg width="24" height="24" viewBox="0 0 24 24" fill="none" xmlns="http://www.w3.org/2000/svg">
<path fill-rule="evenodd" clip-rule="evenodd" d="M15.525 10.313C15.525 12.261 13.937 13.813 12.013 13.813C10.088 13.813 8.5 12.261 8.5 10.313C8.5 8.36299 10.088 6.81299 12.013 6.81299C12.4734 6.8122 12.9295 6.90211 13.3551 7.07757C13.7808 7.25304 14.1678 7.51063 14.4939 7.83563C14.82 8.16064 15.0789 8.54669 15.2558 8.97176C15.4327 9.39683 15.5242 9.85258 15.525 10.313ZM12.013 11.813C12.848 11.813 13.525 11.141 13.525 10.313C13.525 9.48399 12.848 8.81299 12.013 8.81299C11.177 8.81299 10.5 9.48399 10.5 10.313C10.5 11.141 11.177 11.813 12.013 11.813Z" fill="#E3D1D7"/>
<path fill-rule="evenodd" clip-rule="evenodd" d="M12 4.5C8.443 4.5 5.5 7.293 5.5 11.469C5.5 11.7342 5.39464 11.9886 5.20711 12.1761C5.01957 12.3636 4.76522 12.469 4.5 12.469C4.23478 12.469 3.98043 12.3636 3.79289 12.1761C3.60536 11.9886 3.5 11.7342 3.5 11.469C3.5 6.255 7.273 2.5 12 2.5C16.727 2.5 20.5 6.255 20.5 11.469C20.5 11.7342 20.3946 11.9886 20.2071 12.1761C20.0196 12.3636 19.7652 12.469 19.5 12.469C19.2348 12.469 18.9804 12.3636 18.7929 12.1761C18.6054 11.9886 18.5 11.7342 18.5 11.469C18.5 7.293 15.557 4.5 12 4.5Z" fill="#E3D1D7"/>
<path fill-rule="evenodd" clip-rule="evenodd" d="M4.5 10.469C4.76522 10.469 5.01957 10.5744 5.20711 10.7619C5.39464 10.9494 5.5 11.2038 5.5 11.469C5.5 13.238 6.52 14.891 7.915 16.305C9.293 17.703 10.908 18.735 11.802 19.253C11.8537 19.2831 11.9127 19.2981 11.9724 19.2963C12.0322 19.2945 12.0902 19.2761 12.14 19.243C13.034 18.671 14.666 17.539 16.064 16.099C17.494 14.625 18.5 13.011 18.5 11.469C18.5 11.2038 18.6054 10.9494 18.7929 10.7619C18.9804 10.5744 19.2348 10.469 19.5 10.469C19.7652 10.469 20.0196 10.5744 20.2071 10.7619C20.3946 10.9494 20.5 11.2038 20.5 11.469C20.5 13.822 19.018 15.925 17.499 17.491C15.947 19.091 14.169 20.32 13.217 20.928C12.8584 21.1582 12.4434 21.2852 12.0174 21.2951C11.5914 21.305 11.1709 21.1973 10.802 20.984C9.835 20.425 8.048 19.289 6.491 17.709C4.95 16.146 3.5 14.012 3.5 11.47C3.5 11.2048 3.60536 10.9504 3.79289 10.7629C3.98043 10.5754 4.23478 10.47 4.5 10.47V10.469Z" fill="#E3D1D7"/>
</svg>
