<svg width="25" height="25" viewBox="0 0 25 25" fill="none" xmlns="http://www.w3.org/2000/svg">
<path d="M20.9323 6.7535C20.9319 6.68419 20.9124 6.61633 20.876 6.55732C20.8397 6.49832 20.7878 6.45043 20.7261 6.41889C20.6643 6.38734 20.5951 6.37335 20.526 6.37844C20.4569 6.38353 20.3905 6.40751 20.334 6.44775L18.8481 7.51325L18.7311 7.59725C17.1298 5.9995 14.9321 5 12.4966 5C9.17555 5 6.27705 6.8385 4.7613 9.55025L4.7673 9.5535C4.70017 9.6973 4.68933 9.86103 4.73689 10.0124C4.78446 10.1638 4.88699 10.2919 5.0243 10.3715L7.0583 11.5457C7.13071 11.5876 7.21067 11.6148 7.29359 11.6258C7.37652 11.6367 7.46079 11.6312 7.54159 11.6096C7.6224 11.5879 7.69814 11.5506 7.76449 11.4997C7.83084 11.4487 7.88651 11.3852 7.9283 11.3127L7.93205 11.3042C8.8298 9.70325 10.5416 8.6175 12.5043 8.6175C13.7241 8.6175 14.8423 9.0415 15.7328 9.7425L15.4826 9.92225L13.9956 10.9878C13.9394 11.0283 13.8955 11.0836 13.8686 11.1474C13.8417 11.2113 13.8329 11.2813 13.8431 11.3498C13.8534 11.4184 13.8823 11.4828 13.9267 11.536C13.9711 11.5892 14.0292 11.6291 14.0948 11.6515L20.4565 13.8188C20.5134 13.838 20.574 13.8434 20.6334 13.8345C20.6927 13.8256 20.7491 13.8027 20.7979 13.7677C20.8466 13.7327 20.8863 13.6866 20.9136 13.6331C20.941 13.5797 20.9552 13.5205 20.955 13.4605L20.9323 6.7535ZM19.9761 16.3505L19.9756 16.3503L17.9416 15.176C17.8691 15.1341 17.7892 15.1069 17.7063 15.096C17.6233 15.085 17.5391 15.0905 17.4583 15.1122C17.3775 15.1338 17.3017 15.1712 17.2354 15.2221C17.169 15.273 17.1133 15.3365 17.0716 15.409L17.0678 15.4175C16.1701 17.0185 14.4583 18.1042 12.4956 18.1042C11.2758 18.1042 10.1576 17.6803 9.26705 16.9792L9.5173 16.7995L11.0043 15.734C11.0605 15.6934 11.1044 15.6382 11.1313 15.5743C11.1582 15.5105 11.167 15.4404 11.1567 15.3719C11.1465 15.3034 11.1176 15.239 11.0732 15.1858C11.0288 15.1326 10.9706 15.0926 10.905 15.0703L4.5433 12.903C4.48645 12.8838 4.42583 12.8784 4.36648 12.8872C4.30712 12.8961 4.25073 12.919 4.202 12.954C4.15326 12.9891 4.11358 13.0352 4.08624 13.0886C4.0589 13.1421 4.04469 13.2012 4.0448 13.2613L4.0678 19.9683C4.06824 20.0376 4.08771 20.1054 4.12408 20.1644C4.16045 20.2234 4.21232 20.2713 4.27404 20.3029C4.33576 20.3344 4.40496 20.3484 4.47409 20.3433C4.54321 20.3382 4.60962 20.3142 4.66605 20.274L6.15205 19.2085L6.26905 19.1245C7.8703 20.7222 10.0681 21.7218 12.5036 21.7218C15.8246 21.7218 18.7231 19.8832 20.2388 17.1715L20.2325 17.1685C20.2997 17.0248 20.3106 16.8611 20.2632 16.7097C20.2157 16.5583 20.1133 16.4302 19.9761 16.3505Z" fill="#F2DCDF"/>
</svg>
